<svg id="visual" viewBox="0 0 2560 540" width="2560" height="540" xmlns="http://www.w3.org/2000/svg" xmlns:xlink="http://www.w3.org/1999/xlink" version="1.1"><rect x="0" y="0" width="2560" height="540" fill="#f1f1f3"></rect><path d="M0 156L366 139L731 207L1097 209L1463 179L1829 139L2194 176L2560 141L2560 0L2194 0L1829 0L1463 0L1097 0L731 0L366 0L0 0Z" fill="#252f7d"></path><path d="M0 151L366 107L731 116L1097 152L1463 112L1829 169L2194 159L2560 152L2560 0L2194 0L1829 0L1463 0L1097 0L731 0L366 0L0 0Z" fill="#1e265f"></path><path d="M0 86L366 102L731 139L1097 109L1463 118L1829 96L2194 103L2560 80L2560 0L2194 0L1829 0L1463 0L1097 0L731 0L366 0L0 0Z" fill="#181d42"></path><path d="M0 54L366 100L731 66L1097 60L1463 90L1829 89L2194 71L2560 72L2560 0L2194 0L1829 0L1463 0L1097 0L731 0L366 0L0 0Z" fill="#131427"></path><path d="M0 46L366 62L731 37L1097 62L1463 53L1829 32L2194 45L2560 58L2560 0L2194 0L1829 0L1463 0L1097 0L731 0L366 0L0 0Z" fill="#060609"></path></svg>